HIERARCHY
ROOT Hips
{
	OFFSET 0.00 0.00 0.00
	CHANNELS 6 Xposition Yposition Zposition Xrotation Yrotation Zrotation
	JOINT Spine
	{
		OFFSET 0.00000 1.71530 2.57295
		CHANNELS 3 Xrotation Yrotation Zrotation
		JOINT Spine1
		{
			OFFSET 0.00000 0.59572 3.37848
			CHANNELS 3 Xrotation Yrotation Zrotation
			JOINT Spine2
			{
				OFFSET 0.00000 0.29900 3.41754
				CHANNELS 3 Xrotation Yrotation Zrotation
				JOINT Spine3
				{
					OFFSET 0.00000 0.00000 3.43059
					CHANNELS 3 Xrotation Yrotation Zrotation
					JOINT Neck
					{
						OFFSET 0.00000 -1.28647 9.00531
						CHANNELS 3 Xrotation Yrotation Zrotation
						JOINT Head
						{
							OFFSET 0.00000 -0.81911 4.64540
							CHANNELS 3 Xrotation Yrotation Zrotation
							End Site
							{
								OFFSET 0.00000 0.00000 5.55327
							}
						}
					}
					JOINT RightShoulder
					{
						OFFSET -1.18489 -1.97481 6.39840
						CHANNELS 3 Xrotation Yrotation Zrotation
						JOINT RightArm
						{
							OFFSET -5.88495 -0.00000 0.00000
							CHANNELS 3 Xrotation Yrotation Zrotation
							JOINT RightForeArm
							{
								OFFSET -11.35645 -0.00000 0.00000
								CHANNELS 3 Xrotation Yrotation Zrotation
								JOINT RightHand
								{
									OFFSET -9.35042 -0.00000 0.00000
									CHANNELS 3 Xrotation Yrotation Zrotation
									JOINT RightHandEnd
									{
										OFFSET -2.72041 -0.00000 0.00000
										CHANNELS 3 Xrotation Yrotation Zrotation
										End Site
										{
											OFFSET -2.72041 -0.00000 0.00000
										}
									}
									JOINT RightHandThumb1
									{
										OFFSET -1.08817 -1.81361 -0.72544
										CHANNELS 3 Xrotation Yrotation Zrotation
										End Site
										{
											OFFSET -2.62772 -0.70410 0.00000
										}
									}
								}
							}
						}
					}
					JOINT LeftShoulder
					{
						OFFSET 1.18489 -1.97481 6.39840
						CHANNELS 3 Xrotation Yrotation Zrotation
						JOINT LeftArm
						{
							OFFSET 5.88495 0.00000 0.00000
							CHANNELS 3 Xrotation Yrotation Zrotation
							JOINT LeftForeArm
							{
								OFFSET 11.35645 0.00000 0.00000
								CHANNELS 3 Xrotation Yrotation Zrotation
								JOINT LeftHand
								{
									OFFSET 9.35042 0.00000 0.00000
									CHANNELS 3 Xrotation Yrotation Zrotation
									JOINT LeftHandEnd
									{
										OFFSET 2.72041 0.00000 0.00000
										CHANNELS 3 Xrotation Yrotation Zrotation
										End Site
										{
											OFFSET 2.72041 0.00000 0.00000
										}
									}
									JOINT LeftHandThumb1
									{
										OFFSET 1.08817 -1.81361 -0.72544
										CHANNELS 3 Xrotation Yrotation Zrotation
										End Site
										{
											OFFSET 2.62772 -0.70410 0.00000
										}
									}
								}
							}
						}
					}
				}
			}
		}
	}
	JOINT RightUpLeg
	{
		OFFSET -3.51517 0.00000 -1.02690
		CHANNELS 3 Xrotation Yrotation Zrotation
		JOINT RightLeg
		{
			OFFSET 0.00000 0.00000 -15.96284
			CHANNELS 3 Xrotation Yrotation Zrotation
			JOINT RightFoot
			{
				OFFSET 0.00000 0.00000 -16.79853
				CHANNELS 3 Xrotation Yrotation Zrotation
				JOINT RightToeBase
				{
					OFFSET 0.00000 -7.31607 -2.66283
					CHANNELS 3 Xrotation Yrotation Zrotation
					End Site
					{
						OFFSET 0.00000 -2.84373 0.00000
					}
				}
			}
		}
	}
	JOINT LeftUpLeg
	{
		OFFSET 3.51517 0.00000 -1.02690
		CHANNELS 3 Xrotation Yrotation Zrotation
		JOINT LeftLeg
		{
			OFFSET 0.00000 0.00000 -15.96284
			CHANNELS 3 Xrotation Yrotation Zrotation
			JOINT LeftFoot
			{
				OFFSET 0.00000 0.00000 -16.79853
				CHANNELS 3 Xrotation Yrotation Zrotation
				JOINT LeftToeBase
				{
					OFFSET 0.00000 -7.31607 -2.66283
					CHANNELS 3 Xrotation Yrotation Zrotation
					End Site
					{
						OFFSET 0.00000 -2.84373 0.00000
					}
				}
			}
		}
	}
}
MOTION
Frames: 18
Frame Time: 0.008333
 -3.6797 35.6159 -0.2567 -89.7152 -1.9327 177.1309 0.6441 -0.5107 -0.2045 0.5297 0.2456 0.0717 3.9425 -1.4986 0.4557 0.5223 -1.0500 0.4170 1.1462 -4.6389 0.7813 0.9944 1.4255 6.7643 4.1251 7.9862 2.4798 62.0119 -38.4606 39.5473 0.0000 0.0000 57.6888 8.7704 0.1980 -0.3962 -0.0000 0.0000 -0.0000 -0.0000 0.0000 -0.0000 2.3731 -6.2742 -1.4245 64.6367 47.2006 -43.6774 -0.0000 0.0000 -47.8279 61.7233 24.0999 -10.9146 -0.0000 0.0000 0.0000 -0.0000 -0.0000 0.0000 6.2144 7.4372 0.3201 1.8113 -0.0000 -0.0000 -8.2473 -9.2405 1.4880 0.1532 -0.0000 0.0000 4.4468 -9.8103 8.3953 7.5482 0.0000 0.0000 -10.6504 7.3871 4.3158 0.0848 -0.0000 0.0000
 -3.6796 35.6159 -0.2567 -89.7141 -1.9326 177.1310 0.6444 -0.5117 -0.2038 0.5294 0.2441 0.0721 3.9431 -1.4965 0.4572 0.5212 -1.0552 0.4157 1.1490 -4.6267 0.7862 0.9955 1.4230 6.7583 4.1249 7.9983 2.4805 62.0190 -38.4684 39.5572 0.0000 0.0000 57.6872 8.7731 0.1999 -0.3979 -0.0000 0.0000 -0.0000 0.0000 0.0000 -0.0000 2.3953 -6.2691 -1.3923 64.8861 46.9111 -43.9087 0.0000 0.0000 -47.9303 84.7684 20.9386 -16.0671 -0.0000 0.0000 -0.0000 0.0000 0.0000 0.0000 6.2159 7.4373 0.3200 1.8109 0.0000 0.0000 -8.2475 -9.2407 1.4879 0.1539 -0.0000 0.0000 4.4483 -9.8102 8.3950 7.5477 0.0000 0.0000 -10.6504 7.3872 4.3161 0.0842 -0.0000 0.0000
 -3.8139 35.6153 -0.2612 -89.7425 -1.7409 177.0189 0.6325 -0.3527 -0.1943 0.5244 0.2847 0.0761 3.9524 -1.3961 0.5593 0.5124 -1.0265 0.4201 1.0983 -4.6175 0.7741 0.9420 1.3788 6.6676 4.1191 8.0332 2.4758 61.5249 -38.5294 39.0852 -0.0000 0.0000 57.3606 8.5329 0.2462 -0.3174 -0.0000 0.0000 -0.0000 -0.0000 0.0000 -0.0000 2.3712 -6.2776 -1.3048 64.2111 46.6868 -43.0937 0.0000 -0.0000 -47.5908 89.4687 19.9242 -17.1176 -0.0000 -0.0000 -0.0000 -0.0000 -0.0000 -0.0000 6.0919 7.8747 0.1029 1.9178 -0.0000 -0.0000 -8.1840 -9.4623 1.7682 0.1329 -0.0000 0.0000 4.4362 -9.3781 8.4537 7.5446 0.0000 -0.0000 -10.7445 7.1975 4.2886 0.0569 -0.0000 0.0000
 -3.9418 35.6141 -0.2591 -89.7791 -1.5822 176.9118 0.6249 -0.1998 -0.1739 0.5471 0.3157 0.0793 3.9425 -1.3129 0.6408 0.4916 -1.0006 0.4180 1.0455 -4.5921 0.7885 0.8857 1.3375 6.5835 4.0971 8.0972 2.4904 61.0378 -38.5594 38.6107 0.0000 0.0000 57.0607 8.3014 0.1832 -0.2477 -0.0000 -0.0000 -0.0000 0.0000 0.0000 -0.0000 2.3477 -6.3011 -1.2041 63.4455 46.4960 -42.2182 0.0000 0.0000 -47.1976 90.0758 19.7113 -17.2584 -0.0000 0.0000 -0.0000 -0.0000 -0.0000 -0.0000 5.9057 8.2650 -0.1389 2.1077 -0.0000 -0.0000 -8.1360 -9.6516 2.0752 0.1282 -0.0000 0.0000 4.3731 -9.0002 8.5393 7.6022 -0.0000 -0.0000 -10.8494 7.0579 4.2523 0.0795 -0.0000 0.0000
 -4.0615 35.6122 -0.2597 -89.8439 -1.4630 176.7323 0.6097 -0.0406 -0.1572 0.5107 0.3178 0.0795 3.9489 -1.2623 0.7689 0.4881 -0.9778 0.4265 0.9982 -4.5236 0.8261 0.8396 1.2967 6.4946 4.0803 8.1928 2.4974 60.5905 -38.4617 38.1887 0.0000 0.0000 56.7049 8.0995 0.1535 -0.1770 -0.0000 0.0000 0.0000 0.0000 0.0000 -0.0000 2.3004 -6.2784 -1.0996 62.6749 46.2668 -41.2726 -0.0000 0.0000 -46.7935 91.3016 19.4945 -17.4618 -0.0000 0.0000 0.0000 0.0000 -0.0000 -0.0000 5.6513 8.6035 -0.3410 2.3454 0.0000 -0.0000 -8.0985 -9.8336 2.3996 0.0933 -0.0000 0.0000 4.3055 -8.6748 8.7365 7.6621 -0.0000 0.0000 -10.9701 6.9264 4.1883 0.0712 -0.0000 0.0000
 -4.1782 35.6105 -0.2550 -89.9088 -1.3609 176.5685 0.5982 0.1094 -0.1331 0.4985 0.3240 0.0795 3.9440 -1.2312 0.8473 0.4765 -0.9539 0.4304 0.9495 -4.4237 0.8702 0.7929 1.2502 6.4417 4.0497 8.3012 2.5488 60.1455 -38.3147 37.7511 0.0000 0.0000 56.3494 7.8950 0.1238 -0.1142 -0.0000 -0.0000 -0.0000 0.0000 0.0000 -0.0000 2.2600 -6.2526 -0.9744 61.8248 46.0342 -40.2482 -0.0000 -0.0000 -46.4323 92.6746 19.2999 -17.6987 -0.0000 -0.0000 -0.0000 -0.0000 -0.0000 -0.0000 5.3619 8.9198 -0.5951 2.6382 -0.0000 -0.0000 -8.0714 -9.9962 2.7953 0.0783 -0.0000 0.0000 4.1962 -8.3719 8.8503 7.7795 0.0000 0.0000 -11.1180 6.7951 4.1917 0.0598 0.0000 0.0000
 -4.2894 35.6085 -0.2477 -89.9736 -1.2750 176.3875 0.5907 0.2612 -0.1109 0.5021 0.3194 0.0796 3.9251 -1.2061 0.9388 0.4558 -0.9316 0.4335 0.8977 -4.3069 0.9392 0.7605 1.1939 6.3797 4.0074 8.3838 2.5919 59.6909 -38.0742 37.2730 0.0000 0.0000 55.9912 7.7603 0.0551 -0.0347 -0.0000 -0.0000 -0.0000 -0.0000 0.0000 0.0000 2.2199 -6.2557 -0.8722 60.8539 45.9020 -39.0991 0.0000 -0.0000 -45.9887 90.1277 19.5483 -17.1820 0.0000 0.0000 0.0000 -0.0000 -0.0000 -0.0000 5.0462 9.2132 -0.8855 2.9669 0.0000 -0.0000 -8.0369 -10.1766 3.2221 0.0645 -0.0000 0.0000 4.0711 -8.0931 8.9458 7.9247 0.0000 0.0000 -11.2716 6.6409 4.2259 0.0627 -0.0000 0.0000
 -4.3965 35.6058 -0.2407 -90.0279 -1.1832 176.2154 0.5886 0.4340 -0.0788 0.5021 0.3136 0.0783 3.9129 -1.1914 1.0092 0.4373 -0.9154 0.4366 0.8437 -4.1954 1.0007 0.7424 1.1685 6.3410 3.9659 8.4692 2.6480 59.2067 -37.8094 36.7478 0.0000 0.0000 55.6533 7.6286 -0.0996 0.0132 -0.0000 -0.0000 -0.0000 0.0000 0.0000 -0.0000 2.1893 -6.2664 -0.7693 59.8567 45.7259 -37.9398 -0.0000 -0.0000 -45.5411 91.1601 19.4877 -17.4260 0.0000 0.0000 -0.0000 0.0000 -0.0000 -0.0000 4.7285 9.5143 -1.1778 3.3276 -0.0000 0.0000 -8.0205 -10.3332 3.6751 0.0761 -0.0000 -0.0000 3.9459 -7.8098 8.9514 8.0820 0.0000 0.0000 -11.4304 6.4443 4.3394 0.0827 -0.0000 -0.0000
 -4.4970 35.6032 -0.2349 -90.0767 -1.1105 176.0722 0.5888 0.6081 -0.0362 0.4919 0.2998 0.0767 3.9082 -1.1860 1.0450 0.4237 -0.8992 0.4319 0.7938 -4.0958 1.0504 0.7158 1.1584 6.2998 3.9278 8.5411 2.6814 58.7209 -37.4672 36.2250 -0.0000 -0.0000 55.2960 7.5753 -0.1805 0.0743 -0.0000 0.0000 -0.0000 0.0000 0.0000 -0.0000 2.1536 -6.2820 -0.6903 58.8527 45.5371 -36.7343 -0.0000 -0.0000 -45.0895 91.6378 19.4265 -17.3315 -0.0000 0.0000 -0.0000 -0.0000 -0.0000 -0.0000 4.4221 9.7830 -1.5192 3.6939 -0.0000 -0.0000 -7.9977 -10.4763 4.1484 0.0514 -0.0000 0.0000 3.8061 -7.5600 8.9425 8.2711 0.0000 0.0000 -11.5908 6.2648 4.4550 0.0814 0.0000 0.0000
 -4.5950 35.6015 -0.2311 -90.0998 -1.0322 175.9458 0.5979 0.7733 0.0013 0.4813 0.2932 0.0748 3.9153 -1.1693 1.0673 0.4129 -0.8861 0.4287 0.7476 -3.9944 1.0899 0.6918 1.1691 6.2732 3.8927 8.5994 2.7260 58.2195 -37.0941 35.6514 0.0000 0.0000 54.9607 7.6089 -0.2057 0.0655 -0.0000 0.0000 -0.0000 -0.0000 -0.0000 0.0000 2.1280 -6.3137 -0.6116 57.7831 45.3356 -35.4904 0.0000 0.0000 -44.6030 91.9155 19.4103 -17.0776 0.0000 0.0000 -0.0000 0.0000 0.0000 -0.0000 4.1539 10.0554 -1.8914 4.0525 0.0000 0.0000 -7.9597 -10.6445 4.6373 0.0315 -0.0000 0.0000 3.7055 -7.3029 8.8392 8.4330 -0.0000 -0.0000 -11.7543 6.1437 4.6495 0.1334 0.0000 0.0000
 -4.6887 35.5995 -0.2191 -90.1418 -0.9420 175.7440 0.6190 0.8916 0.0121 0.5049 0.3041 0.0834 3.8710 -1.0792 1.1770 0.3911 -0.8817 0.4431 0.6873 -3.8946 1.1261 0.6749 1.1601 6.2390 3.8747 8.6277 2.7476 57.6798 -36.6860 35.0467 -0.0000 0.0000 54.6186 7.6803 -0.2773 0.0485 -0.0000 0.0000 -0.0000 0.0000 0.0000 -0.0000 2.0998 -6.3699 -0.5780 56.6185 45.1683 -34.1517 -0.0000 0.0000 -44.0840 91.1588 19.5217 -16.6115 -0.0000 0.0000 0.0000 -0.0000 0.0000 0.0000 3.7979 10.3400 -2.1787 4.4633 -0.0000 0.0000 -7.9434 -10.7946 5.1506 0.0074 -0.0000 0.0000 3.5667 -7.0549 8.9945 8.6331 0.0000 0.0000 -11.8707 5.9714 4.6521 0.0957 -0.0000 0.0000
 -4.7713 35.6002 -0.2082 -90.1994 -0.9249 175.6020 0.6127 1.0166 0.0407 0.5053 0.2892 0.0823 3.8652 -1.0712 1.2267 0.3772 -0.8672 0.4482 0.6301 -3.7766 1.1667 0.6539 1.1552 6.2066 3.8820 8.6651 2.7362 57.0894 -36.2427 34.4444 0.0000 0.0000 54.2492 7.7738 -0.3763 0.0254 -0.0000 -0.0000 -0.0000 -0.0000 0.0000 -0.0000 2.0655 -6.4209 -0.5264 55.4573 44.9307 -32.8331 0.0000 0.0000 -43.5503 91.7704 19.5198 -16.6006 0.0000 -0.0000 -0.0000 -0.0000 0.0000 -0.0000 3.4712 10.5195 -2.4528 4.8306 0.0000 -0.0000 -7.8944 -10.9133 5.5808 -0.0008 -0.0000 0.0000 3.3937 -6.9194 9.2303 8.8608 -0.0000 0.0000 -11.9992 5.8727 4.5445 0.0991 -0.0000 -0.0000
 -4.8495 35.6025 -0.2007 -90.2152 -0.9137 175.4663 0.6307 1.1320 0.0634 0.5083 0.2800 0.0844 3.8668 -1.0610 1.2832 0.3612 -0.8574 0.4551 0.5873 -3.6602 1.2016 0.6317 1.1582 6.1694 3.8736 8.6926 2.7636 56.4828 -35.8466 33.7485 -0.0000 0.0000 53.9051 7.8837 -0.4368 0.0006 -0.0000 0.0000 -0.0000 0.0000 -0.0000 0.0000 2.0701 -6.4819 -0.4862 54.1903 44.6832 -31.4538 0.0000 0.0000 -43.0095 91.9758 19.5888 -16.7130 -0.0000 -0.0000 -0.0000 0.0000 0.0000 0.0000 3.2108 10.6844 -2.7056 5.1633 0.0000 -0.0000 -7.8576 -10.9714 5.9935 -0.0027 -0.0000 0.0000 3.2886 -6.7971 9.5286 9.0564 0.0000 -0.0000 -12.1020 5.7937 4.3644 0.1315 -0.0000 0.0000
 -4.9245 35.6057 -0.1916 -90.2145 -0.9080 175.3349 0.6791 1.2308 0.0812 0.5146 0.2839 0.0826 3.8557 -1.0633 1.3371 0.3459 -0.8387 0.4567 0.5424 -3.5364 1.2546 0.6037 1.1630 6.1365 3.8891 8.7376 2.7558 55.8773 -35.3765 33.1218 -0.0000 0.0000 53.4978 8.1763 -0.6227 -0.0333 -0.0000 0.0000 0.0000 0.0000 0.0000 -0.0000 2.0324 -6.5647 -0.4561 52.8383 44.4669 -29.9910 0.0000 0.0000 -42.4565 92.3892 19.6740 -17.0225 0.0000 0.0000 -0.0000 -0.0000 0.0000 0.0000 2.9786 10.8407 -2.9454 5.4735 -0.0000 -0.0000 -7.7967 -11.0844 6.3821 -0.0069 -0.0000 0.0000 3.2067 -6.6768 9.7139 9.2211 0.0000 0.0000 -12.1890 5.7250 4.2887 0.0991 -0.0000 0.0000
 -4.9933 35.6072 -0.1917 -90.2101 -0.9155 175.2435 0.6822 1.3425 0.1086 0.5076 0.2443 0.0803 3.8827 -1.0510 1.3495 0.3412 -0.8113 0.4541 0.4975 -3.4279 1.2759 0.6040 1.1651 6.1089 3.9059 8.8450 2.7428 55.4225 -34.8165 32.6683 0.0000 -0.0000 52.9760 7.9793 -0.5317 -0.0554 -0.0000 0.0000 0.0000 0.0000 0.0000 -0.0000 2.0284 -6.6931 -0.4336 51.8813 44.0778 -28.8652 -0.0000 -0.0000 -41.8327 93.8071 19.6137 -16.2813 0.0000 0.0000 -0.0000 -0.0000 0.0000 0.0000 2.7899 10.9754 -3.3426 5.7663 0.0000 -0.0000 -7.7239 -11.2614 6.7885 -0.0230 -0.0000 0.0000 3.1437 -6.5886 9.9710 9.3811 -0.0000 0.0000 -12.2741 5.6300 4.1081 0.0938 -0.0000 0.0000
 -5.0561 35.6088 -0.1909 -90.1921 -0.9127 175.1682 0.7007 1.4481 0.1246 0.5144 0.2370 0.0819 3.8900 -1.0399 1.3693 0.3323 -0.8041 0.4572 0.4730 -3.2901 1.3171 0.5944 1.1456 6.0897 3.9308 8.9050 2.6994 54.8909 -34.3122 32.0979 0.0000 0.0000 52.4695 8.0592 -0.2576 -0.0182 -0.0000 -0.0000 0.0000 -0.0000 0.0000 -0.0000 2.0160 -6.8227 -0.4335 50.6442 43.7687 -27.5181 -0.0000 0.0000 -41.1634 92.6043 19.7880 -15.8190 0.0000 0.0000 -0.0000 -0.0000 0.0000 0.0000 2.6627 11.0828 -3.6479 5.9726 -0.0000 -0.0000 -7.6953 -11.4593 6.8905 -0.0395 -0.0000 0.0000 3.1182 -6.4792 10.0530 9.4786 0.0000 0.0000 -12.3339 5.5036 4.0866 0.1055 -0.0000 0.0000
 -5.1097 35.6117 -0.1949 -90.1496 -0.9575 175.1310 0.7207 1.5343 0.1334 0.5219 0.2102 0.0809 3.9075 -1.0375 1.3663 0.3354 -0.7911 0.4546 0.4444 -3.1765 1.3414 0.6016 1.1393 6.0635 3.9549 8.9610 2.6689 54.2533 -33.8813 31.4443 0.0000 0.0000 51.9588 7.9530 -0.1874 -0.0219 -0.0000 0.0000 -0.0000 -0.0000 0.0000 -0.0000 1.9883 -6.9735 -0.4381 49.4195 43.4375 -26.1849 0.0000 0.0000 -40.4886 92.5129 19.8522 -15.8224 0.0000 -0.0000 -0.0000 -0.0000 -0.0000 -0.0000 2.6227 11.1055 -4.0045 6.0997 -0.0000 -0.0000 -7.7041 -11.6793 6.7877 -0.0597 -0.0000 0.0000 3.1310 -6.4341 10.1531 9.5619 -0.0000 -0.0000 -12.3913 5.3708 4.0248 0.0991 0.0000 0.0000
 -5.1586 35.6134 -0.1946 -90.1507 -0.9872 175.1069 0.7267 1.6373 0.1494 0.5271 0.1953 0.0803 3.8902 -1.0559 1.3476 0.3291 -0.7791 0.4538 0.4393 -3.0669 1.3624 0.6070 1.1366 6.0508 3.9764 9.0115 2.6110 53.6258 -33.4312 30.7835 -0.0000 -0.0000 51.4778 7.8262 -0.1938 -0.1123 -0.0000 0.0000 -0.0000 -0.0000 0.0000 0.0000 1.9981 -7.1365 -0.4327 48.2129 43.0465 -24.9169 -0.0000 0.0000 -39.7822 91.6252 19.9302 -15.7139 -0.0000 -0.0000 -0.0000 -0.0000 0.0000 0.0000 2.5502 11.1292 -4.3690 6.1873 -0.0000 -0.0000 -7.6985 -12.1202 6.4431 -0.1342 -0.0000 0.0000 3.0881 -6.3891 10.2022 9.6491 0.0000 0.0000 -12.4571 5.3248 3.9911 0.1050 -0.0000 0.0000
